<?xml version="1.0" encoding="utf-8"?>
<!-- Generator: Adobe Illustrator 15.0.2, SVG Export Plug-In . SVG Version: 6.00 Build 0)  -->
<!DOCTYPE svg PUBLIC "-//W3C//DTD SVG 1.1//EN" "http://www.w3.org/Graphics/SVG/1.1/DTD/svg11.dtd">
<svg version="1.1" id="Layer_1" xmlns="http://www.w3.org/2000/svg" xmlns:xlink="http://www.w3.org/1999/xlink" x="0px" y="0px"
	 width="88.089px" height="22.064px" viewBox="0 0 88.089 22.064" enable-background="new 0 0 88.089 22.064" xml:space="preserve">
<path fill="#282828" d="M35.635,5.108C36.35,4.962,37.23,4.87,38.274,4.87c1.467,0,2.584,0.367,3.263,1.045
	c0.587,0.568,0.952,1.374,0.952,2.419c0,1.062-0.311,1.851-0.861,2.456c-0.787,0.916-2.125,1.393-3.628,1.393
	c-0.55,0-1.063-0.018-1.503-0.146v5.277h-0.861V5.108H35.635z M36.496,11.266c0.439,0.128,0.972,0.183,1.576,0.183
	c2.199,0,3.537-1.081,3.537-3.042c0-1.942-1.411-2.804-3.372-2.804c-0.806,0-1.411,0.073-1.741,0.146V11.266z"/>
<path fill="#282828" d="M44.433,11.156c0-0.88-0.036-1.796-0.073-2.639h0.807l0.036,1.778h0.036c0.386-1.1,1.302-1.979,2.512-1.979
	c0.109,0,0.238,0.019,0.348,0.037v0.843c-0.128-0.037-0.256-0.037-0.422-0.037c-1.209,0-2.07,1.044-2.309,2.456
	c-0.037,0.256-0.073,0.55-0.073,0.843v4.856h-0.861L44.433,11.156L44.433,11.156z"/>
<path fill="#282828" d="M57.15,12.823c0,3.298-2.254,4.69-4.215,4.69c-2.271,0-4.032-1.777-4.032-4.526
	c0-3.024,1.979-4.673,4.161-4.673C55.502,8.315,57.15,10.129,57.15,12.823z M49.784,12.933c0,2.199,1.411,3.849,3.207,3.849
	c1.833,0,3.28-1.649,3.28-3.904c0-1.612-0.916-3.848-3.226-3.848C50.811,9.03,49.784,11.045,49.784,12.933z"/>
<path fill="#282828" d="M60.598,6.574v1.942h2.512v0.696h-2.512v5.718c0,1.118,0.35,1.833,1.283,1.833
	c0.459,0,0.788-0.074,1.008-0.146l0.11,0.678c-0.294,0.128-0.696,0.221-1.228,0.221c-0.643,0-1.174-0.221-1.504-0.643
	c-0.402-0.458-0.55-1.191-0.55-2.089V9.213h-1.483V8.517h1.483V6.904L60.598,6.574z"/>
<path fill="#282828" d="M65.07,12.823c0,2.821,1.539,3.922,3.354,3.922c1.283,0,1.943-0.257,2.438-0.495l0.222,0.695
	c-0.33,0.185-1.229,0.568-2.769,0.568c-2.528,0-4.104-1.851-4.104-4.435c0-2.932,1.687-4.765,3.959-4.765
	c2.877,0,3.427,2.712,3.427,3.977c0,0.238,0,0.385-0.035,0.532H65.07z M70.678,12.127c0.021-1.228-0.494-3.097-2.619-3.097
	c-1.942,0-2.785,1.741-2.934,3.097H70.678z"/>
<path fill="#282828" d="M80.594,15.169c0,0.771,0.037,1.466,0.073,2.144h-0.806l-0.057-1.558H79.77
	c-0.439,0.806-1.447,1.759-3.023,1.759c-1.118,0-2.987-0.55-2.987-3.885V8.517h0.861v4.948c0,1.906,0.604,3.281,2.346,3.281
	c1.283,0,2.218-0.898,2.584-1.778c0.093-0.275,0.185-0.623,0.185-0.971v-5.48h0.861v6.652H80.594z"/>
<path fill="#282828" d="M83.197,16.159c0.477,0.293,1.191,0.604,1.979,0.604c1.393,0,2.053-0.752,2.053-1.668
	c0-0.971-0.586-1.484-1.851-1.998c-1.448-0.55-2.235-1.338-2.235-2.401c0-1.264,0.988-2.382,2.711-2.382
	c0.808,0,1.484,0.238,1.942,0.55L87.449,9.58c-0.293-0.22-0.861-0.532-1.741-0.532c-1.118,0-1.704,0.715-1.704,1.521
	c0,0.917,0.623,1.32,1.814,1.814c1.43,0.55,2.271,1.265,2.271,2.603c0,1.502-1.172,2.53-2.969,2.53
	c-0.861,0-1.647-0.258-2.235-0.623L83.197,16.159z"/>
<rect x="5.162" y="12.88" transform="matrix(-0.7071 -0.7071 0.7071 -0.7071 13.3607 32.1231)" fill="#282828" width="16.342" height="0.829"/>
<polygon fill="#282828" points="25.598,12.349 24.24,11.582 14.82,2.161 15.405,1.575 26.006,12.177 "/>
<path fill="#282828" d="M19.149,19.109c-0.655-0.654-1.065-1.457-1.255-2.297L8.027,7.401C6.83,5.771,7.079,3.554,8.638,1.995
	c0.79-0.79,1.889-1.193,3.077-1.163c1.168,0.039,2.3,0.523,3.105,1.329l0.585-0.586c-0.953-0.952-2.287-1.524-3.663-1.571
	c-1.429-0.059-2.736,0.451-3.69,1.405C6.396,3.065,6.004,5.457,7.007,7.332L0,8.045l13.18,14.02l8.892-1.269l-0.4-0.382
	C20.748,20.253,19.862,19.823,19.149,19.109z M1.752,8.7l5.815-0.592l12.696,12.11l-6.775,0.968L1.752,8.7z"/>
<path fill="#282828" d="M22.488,20.907c-1.373,0-2.662-0.535-3.631-1.505c-0.971-0.969-1.504-2.26-1.504-3.631
	c0-1.373,0.534-2.662,1.504-3.631c0.97-0.97,2.259-1.504,3.631-1.504c1.371,0,2.662,0.535,3.631,1.504
	c2.003,2.002,2.003,5.26,0,7.262C25.15,20.372,23.859,20.907,22.488,20.907z M22.488,11.463c-1.151,0-2.232,0.448-3.046,1.262
	c-0.813,0.814-1.262,1.896-1.262,3.046c0,1.149,0.448,2.231,1.262,3.045s1.896,1.262,3.046,1.262c1.15,0,2.232-0.448,3.047-1.262
	c1.679-1.68,1.679-4.411,0-6.091C24.721,11.911,23.639,11.463,22.488,11.463z"/>
<path fill="#282828" d="M22.138,16.609c-1.203,0-2.333-0.734-2.788-1.887c-0.083-0.213,0.021-0.453,0.233-0.537
	c0.213-0.083,0.454,0.021,0.538,0.234c0.388,0.985,1.459,1.549,2.496,1.308c0.562-0.129,1.039-0.471,1.344-0.959
	c0.305-0.49,0.401-1.068,0.271-1.63c-0.27-1.159-1.434-1.887-2.592-1.615c-0.156,0.037-0.305,0.089-0.443,0.155
	c-0.206,0.1-0.453,0.013-0.553-0.193c-0.099-0.206-0.012-0.453,0.194-0.553c0.192-0.092,0.399-0.166,0.615-0.216
	c1.609-0.37,3.214,0.631,3.586,2.234c0.18,0.778,0.047,1.578-0.375,2.256c-0.422,0.676-1.083,1.148-1.859,1.329
	C22.582,16.585,22.359,16.609,22.138,16.609z"/>
</svg>
